{"asset":{"version":"2.0","generator":"THREE.JS GLTFExporter"},"scenes":[{"nodes":[0],"name":"AuxScene"}],"scene":0,"nodes":[{"mesh":0}],"meshes":[{"primitives":[{"mode":4,"attributes":{"POSITION":0,"NORMAL":1},"material":0}]}],"materials":[{"pbrMetallicRoughness":{"baseColorFactor":[0.5019607843137255,0.5019607843137255,0.5019607843137255,1],"metallicFactor":0,"roughnessFactor":1}}],"accessors":[{"bufferView":0,"componentType":5126,"count":360,"max":[15.600000381469727,0.0949999988079071,1.7000010013580322],"min":[-15.600000381469727,0.0949999988079071,-33.599998474121094],"type":"VEC3"},{"bufferView":1,"componentType":5126,"count":360,"max":[0,1,0],"min":[0,1,0],"type":"VEC3"}],"bufferViews":[{"buffer":0,"byteOffset":0,"byteLength":4320,"byteStride":12,"target":34962},{"buffer":0,"byteOffset":4320,"byteLength":4320,"byteStride":12,"target":34962}],"buffers":[{"byteLength":8640,"uri":"data:application/octet-stream;base64,"}]}